<svg width="30" height="30" viewBox="0 0 30 30" fill="none" xmlns="http://www.w3.org/2000/svg">
<path d="M6.25 13.5016H21.075L16.5375 8.05157C16.3253 7.79629 16.2232 7.46719 16.2537 7.13666C16.2842 6.80613 16.4447 6.50124 16.7 6.28907C16.9553 6.07689 17.2844 5.97481 17.6149 6.00529C17.9454 6.03576 18.2503 6.19629 18.4625 6.45157L24.7125 13.9516C24.7545 14.0112 24.7922 14.0739 24.825 14.1391C24.825 14.2016 24.825 14.2391 24.9125 14.3016C24.9692 14.4449 24.9988 14.5975 25 14.7516C24.9988 14.9057 24.9692 15.0582 24.9125 15.2016C24.9125 15.2641 24.9125 15.3016 24.825 15.3641C24.7922 15.4292 24.7545 15.4919 24.7125 15.5516L18.4625 23.0516C18.345 23.1927 18.1978 23.3061 18.0314 23.3839C17.8651 23.4617 17.6836 23.5019 17.5 23.5016C17.2079 23.5021 16.9249 23.4004 16.7 23.2141C16.5734 23.1091 16.4688 22.9803 16.3921 22.8348C16.3154 22.6894 16.2682 22.5303 16.2531 22.3665C16.238 22.2028 16.2553 22.0377 16.3041 21.8807C16.3529 21.7237 16.4322 21.5779 16.5375 21.4516L21.075 16.0016H6.25C5.91848 16.0016 5.60054 15.8699 5.36612 15.6354C5.13169 15.401 5 15.0831 5 14.7516C5 14.42 5.13169 14.1021 5.36612 13.8677C5.60054 13.6333 5.91848 13.5016 6.25 13.5016Z" fill="#F53838"/>
</svg>
