<svg width="14" height="10" viewBox="0 0 14 10" fill="none" xmlns="http://www.w3.org/2000/svg">
<path d="M5.69719 9.73C5.56328 9.73027 5.43063 9.70461 5.30687 9.6545C5.1831 9.60439 5.07064 9.53082 4.97595 9.438L0.648495 5.195C0.550996 5.10282 0.473201 4.99253 0.419651 4.87056C0.3661 4.7486 0.337865 4.6174 0.336593 4.48462C0.335321 4.35184 0.361038 4.22015 0.412243 4.09722C0.463448 3.97429 0.539116 3.86258 0.634831 3.76863C0.730547 3.67467 0.844393 3.60034 0.969728 3.54997C1.09506 3.4996 1.22937 3.4742 1.36483 3.47526C1.50028 3.47632 1.63416 3.50381 1.75866 3.55614C1.88316 3.60846 1.99578 3.68456 2.08996 3.78L5.69617 7.315L12.1894 0.952001C12.3807 0.76436 12.6402 0.658892 12.9108 0.658798C13.1814 0.658705 13.441 0.763993 13.6324 0.951501C13.8238 1.13901 13.9314 1.39338 13.9315 1.65865C13.9316 1.92392 13.8242 2.17836 13.6329 2.366L6.41843 9.438C6.32374 9.53082 6.21129 9.60439 6.08752 9.6545C5.96375 9.70461 5.8311 9.73027 5.69719 9.73Z" fill="#2FAB73"/>
</svg>
