<svg width="25" height="25" viewBox="0 0 25 25" fill="none" xmlns="http://www.w3.org/2000/svg">
<path d="M19.5 9.5C19.5 8.58075 19.3189 7.6705 18.9672 6.82122C18.6154 5.97194 18.0998 5.20026 17.4497 4.55025C16.7997 3.90024 16.0281 3.38463 15.1788 3.03284C14.3295 2.68106 13.4193 2.5 12.5 2.5C11.5807 2.5 10.6705 2.68106 9.82122 3.03284C8.97194 3.38463 8.20026 3.90024 7.55025 4.55025C6.90024 5.20026 6.38463 5.97194 6.03284 6.82122C5.68106 7.6705 5.5 8.58075 5.5 9.5C5.5 10.887 5.91 12.177 6.605 13.265H6.597C8.957 16.96 12.5 22.5 12.5 22.5L18.403 13.265H18.396C19.1164 12.1414 19.4995 10.8347 19.5 9.5ZM12.5 12.5C11.7044 12.5 10.9413 12.1839 10.3787 11.6213C9.81607 11.0587 9.5 10.2956 9.5 9.5C9.5 8.70435 9.81607 7.94129 10.3787 7.37868C10.9413 6.81607 11.7044 6.5 12.5 6.5C13.2956 6.5 14.0587 6.81607 14.6213 7.37868C15.1839 7.94129 15.5 8.70435 15.5 9.5C15.5 10.2956 15.1839 11.0587 14.6213 11.6213C14.0587 12.1839 13.2956 12.5 12.5 12.5Z" fill="#F53838"/>
</svg>
