<svg width="25" height="25" viewBox="0 0 25 25" fill="none" xmlns="http://www.w3.org/2000/svg">
<path fill-rule="evenodd" clip-rule="evenodd" d="M12.5 11.3C13.4548 11.3 14.3704 10.9207 15.0456 10.2456C15.7207 9.57043 16.1 8.65476 16.1 7.69998C16.1 6.7452 15.7207 5.82952 15.0456 5.15439C14.3704 4.47926 13.4548 4.09998 12.5 4.09998C11.5452 4.09998 10.6295 4.47926 9.95439 5.15439C9.27926 5.82952 8.89998 6.7452 8.89998 7.69998C8.89998 8.65476 9.27926 9.57043 9.95439 10.2456C10.6295 10.9207 11.5452 11.3 12.5 11.3ZM7.39863 22.1C5.57683 22.1 4.04222 20.5686 4.73939 18.8854C5.16153 17.8663 5.78027 16.9403 6.56028 16.1603C7.34029 15.3803 8.2663 14.7615 9.28544 14.3394C10.3046 13.9172 11.3969 13.7 12.5 13.7C13.6031 13.7 14.6954 13.9172 15.7145 14.3394C16.7337 14.7615 17.6597 15.3803 18.4397 16.1603C19.2197 16.9403 19.8384 17.8663 20.2606 18.8854C20.9577 20.5686 19.4231 22.1 17.6013 22.1H7.39863Z" fill="#F53838"/>
</svg>
