<svg width="35" height="34" viewBox="0 0 35 34" fill="none" xmlns="http://www.w3.org/2000/svg">
<path d="M31.1473 12.8069L31.1255 12.7864C31.1238 12.7853 31.1224 12.7838 31.1215 12.782L17.5006 0L3.87983 12.7817C3.87826 12.7832 3.8758 12.7861 3.8758 12.7861L3.85333 12.8065C1.77053 14.772 0.447586 17.3344 0.0948177 20.0864C-0.25795 22.8384 0.379698 25.6221 1.90639 27.9951C3.43309 30.368 5.76122 32.194 8.52069 33.1826C11.2802 34.1711 14.3126 34.2659 17.136 33.4514C17.3735 33.3832 17.6275 33.3832 17.8651 33.4514C20.6882 34.2655 23.7205 34.1708 26.4798 33.1821C29.2391 32.1933 31.567 30.3675 33.0936 27.9947C34.6202 25.622 35.2579 22.8384 34.9053 20.0866C34.5526 17.3347 33.2299 14.7723 31.1473 12.8069ZM8.7232 21.2356C8.65689 21.2978 8.6043 21.3717 8.56844 21.4529C8.53257 21.5341 8.5141 21.6213 8.51412 21.7092C8.53835 23.9651 9.21776 26.172 10.4792 28.0926C10.5079 28.1362 10.5211 28.1872 10.517 28.2382C10.513 28.2892 10.4918 28.3377 10.4566 28.3768C10.4213 28.4159 10.3738 28.4435 10.3209 28.4557C10.2679 28.4679 10.2122 28.4641 10.1616 28.4448C9.21332 28.0705 8.35182 27.5263 7.62531 26.8429C6.13646 25.4455 5.29946 23.5507 5.2981 21.5747C5.29675 19.5987 6.13117 17.7029 7.61812 16.3038L17.5006 7.03109L27.3826 16.3038C28.8698 17.7027 29.7045 19.5985 29.703 21.5747C29.7018 23.5507 28.8647 25.4455 27.3757 26.8429C26.6492 27.5263 25.7877 28.0705 24.8396 28.4448C24.7889 28.4641 24.7332 28.4679 24.6802 28.4557C24.6273 28.4435 24.5798 28.4157 24.5445 28.3768C24.5093 28.3377 24.488 28.2892 24.484 28.238C24.4799 28.187 24.4931 28.136 24.5218 28.0924C25.7835 26.172 26.4633 23.9651 26.4879 21.7092C26.4879 21.6213 26.4692 21.5341 26.4332 21.4527C26.3971 21.3714 26.3444 21.2976 26.2779 21.2354L21.6037 16.5829C21.5571 16.5465 21.4985 16.5265 21.4378 16.5265C21.3773 16.5265 21.3186 16.5465 21.2721 16.5829C21.2255 16.6193 21.1942 16.6699 21.1833 16.7259C21.1724 16.7818 21.1828 16.8394 21.2127 16.8889C23.0281 19.9717 21.467 24.3997 18.8637 26.8429L18.85 26.8558C18.4907 27.1893 18.0056 27.3763 17.5002 27.3762C16.9948 27.376 16.5098 27.1887 16.1508 26.855L16.1382 26.8429C13.5339 24.3997 11.9736 19.9722 13.7893 16.8896C13.8192 16.8401 13.8296 16.7825 13.8187 16.7265C13.8079 16.6706 13.7764 16.6199 13.7299 16.5836C13.6834 16.5471 13.6247 16.5272 13.5642 16.5272C13.5036 16.5272 13.4449 16.5471 13.3984 16.5836L8.7232 21.2356Z" fill="#F53838"/>
</svg>
