<svg width="148" height="166" viewBox="0 0 148 166" fill="none" xmlns="http://www.w3.org/2000/svg">
<path fill-rule="evenodd" clip-rule="evenodd" d="M52.8674 40.4227C53.529 39.0003 54.3038 37.8953 54.8159 37.3127C54.8257 38.6867 54.6117 39.9193 54.2805 40.9905C55.2995 41.4773 56.3585 42.1589 57.3703 43.0995C56.5906 43.0761 55.2452 42.8891 53.7414 42.4041C53.0482 43.9177 52.1722 44.9628 51.5979 45.4494C51.6371 44.1757 51.9078 42.955 52.288 41.8538C51.213 41.3822 50.1238 40.7497 49.1527 39.9126C49.9038 39.8255 51.274 39.8983 52.8674 40.4227Z" fill="url(#paint0_linear)"/>
<path fill-rule="evenodd" clip-rule="evenodd" d="M47.6352 26.1719C48.0756 25.2252 48.5914 24.4897 48.9322 24.1019C48.9387 25.0164 48.7963 25.8368 48.5759 26.5498C49.2544 26.8738 49.9596 27.3277 50.6334 27.954C50.1142 27.9384 49.2183 27.8139 48.217 27.4908C47.7556 28.4983 47.1725 29.194 46.7902 29.5179C46.8163 28.6701 46.9965 27.8575 47.2496 27.1244C46.5343 26.8106 45.8096 26.3897 45.1635 25.8327C45.6633 25.7747 46.575 25.8232 47.6352 26.1719Z" fill="url(#paint1_linear)"/>
<path fill-rule="evenodd" clip-rule="evenodd" d="M33.4794 12.0069C34.141 10.5845 34.9159 9.47953 35.4279 8.8969C35.4378 10.2709 35.2238 11.5035 34.8926 12.5747C35.9116 13.0615 36.9706 13.7431 37.9824 14.6837C37.2027 14.6603 35.8572 14.4733 34.3534 13.9883C33.6603 15.5019 32.7843 16.547 32.21 17.0336C32.2491 15.7599 32.5199 14.5392 32.9001 13.438C31.8251 12.9664 30.7359 12.3339 29.7648 11.4968C30.5158 11.4097 31.8861 11.4825 33.4794 12.0069Z" fill="url(#paint2_linear)"/>
<path fill-rule="evenodd" clip-rule="evenodd" d="M31.2356 43.8993C32.2091 41.8067 33.3493 40.1811 34.1028 39.3239C34.1176 41.3456 33.803 43.159 33.3158 44.7351C34.815 45.4513 36.3731 46.4541 37.8617 47.8379C36.7146 47.8035 34.7351 47.5284 32.5227 46.8148C31.5027 49.0422 30.2134 50.5801 29.3681 51.296C29.4253 49.4216 29.8237 47.6251 30.3832 46.0047C28.8021 45.3109 27.2 44.3805 25.7717 43.1493C26.8765 43.0211 28.8919 43.1282 31.2356 43.8993Z" fill="url(#paint3_linear)"/>
<ellipse rx="0.851342" ry="0.845649" transform="matrix(0.932346 0.361568 -0.367765 0.929919 37.0921 29.5757)" fill="#2F235A"/>
<ellipse rx="0.851342" ry="0.845649" transform="matrix(0.932346 0.361568 -0.367765 0.929919 58.2105 18.9559)" fill="#FE9076"/>
<ellipse rx="0.851342" ry="0.845649" transform="matrix(0.932346 0.361568 -0.367765 0.929919 17.6712 23.5697)" fill="#FFA400"/>
<ellipse rx="0.851342" ry="0.845649" transform="matrix(0.932346 0.361568 -0.367765 0.929919 35.9869 57.5779)" fill="#23BB86"/>
<path d="M57.5631 14.9193C56.7333 11.7809 53.7382 4.60337 48.3961 1.00001" stroke="#FE9076" stroke-width="0.736823" stroke-linecap="round"/>
<path d="M15.1544 20.1626C13.0896 17.6439 7.36801 12.3323 0.999916 11.2358" stroke="#FFA400" stroke-width="0.736823" stroke-linecap="round"/>
<path d="M32.3577 58.8056C30.5278 59.4664 25.9215 61.5721 22.1347 64.7083" stroke="#23BB86" stroke-width="0.736823" stroke-linecap="round"/>
<path fill-rule="evenodd" clip-rule="evenodd" d="M95.1331 40.4227C94.4715 39.0003 93.6966 37.8953 93.1846 37.3127C93.1748 38.6867 93.3888 39.9193 93.72 40.9905C92.701 41.4773 91.642 42.1589 90.6301 43.0995C91.4099 43.0761 92.7553 42.8891 94.2591 42.4041C94.9523 43.9177 95.8282 44.9628 96.4025 45.4494C96.3634 44.1757 96.0927 42.955 95.7125 41.8538C96.7874 41.3822 97.8767 40.7497 98.8477 39.9126C98.0967 39.8255 96.7265 39.8983 95.1331 40.4227Z" fill="url(#paint4_linear)"/>
<path fill-rule="evenodd" clip-rule="evenodd" d="M100.365 26.1721C99.9245 25.2253 99.4087 24.4898 99.0679 24.102C99.0613 25.0165 99.2038 25.8369 99.4242 26.55C98.7457 26.874 98.0406 27.3278 97.3669 27.954C97.886 27.9385 98.7818 27.814 99.7831 27.491C100.244 28.4985 100.828 29.1941 101.21 29.518C101.184 28.6702 101.004 27.8576 100.75 27.1246C101.466 26.8107 102.191 26.3898 102.837 25.8328C102.337 25.7748 101.425 25.8233 100.365 26.1721Z" fill="url(#paint5_linear)"/>
<path fill-rule="evenodd" clip-rule="evenodd" d="M114.521 12.0069C113.859 10.5845 113.085 9.47953 112.573 8.8969C112.563 10.2709 112.777 11.5035 113.108 12.5747C112.089 13.0615 111.03 13.7431 110.018 14.6837C110.798 14.6603 112.143 14.4733 113.647 13.9883C114.34 15.5019 115.216 16.547 115.79 17.0336C115.751 15.7599 115.481 14.5392 115.1 13.438C116.175 12.9664 117.265 12.3339 118.236 11.4968C117.485 11.4097 116.114 11.4825 114.521 12.0069Z" fill="url(#paint6_linear)"/>
<path fill-rule="evenodd" clip-rule="evenodd" d="M116.765 43.8992C115.791 41.8066 114.651 40.181 113.898 39.3238C113.883 41.3455 114.197 43.1589 114.685 44.7349C113.185 45.4511 111.627 46.454 110.138 47.8378C111.286 47.8034 113.265 47.5283 115.478 46.8147C116.498 49.0421 117.787 50.58 118.632 51.2959C118.575 49.4215 118.177 47.625 117.617 46.0045C119.198 45.3108 120.8 44.3804 122.228 43.1492C121.124 43.021 119.108 43.1281 116.765 43.8992Z" fill="url(#paint7_linear)"/>
<ellipse rx="0.851342" ry="0.845649" transform="matrix(-0.932346 0.361568 0.367765 0.929919 110.908 29.5757)" fill="#2F235A"/>
<ellipse rx="0.851342" ry="0.845649" transform="matrix(-0.932346 0.361568 0.367765 0.929919 89.79 18.9559)" fill="#FE9076"/>
<ellipse rx="0.851342" ry="0.845649" transform="matrix(-0.932346 0.361568 0.367765 0.929919 130.329 23.5697)" fill="#FFA400"/>
<ellipse rx="0.851342" ry="0.845649" transform="matrix(-0.932346 0.361568 0.367765 0.929919 112.014 57.5779)" fill="#23BB86"/>
<path d="M90.4371 14.9193C91.2669 11.7809 94.262 4.60337 99.6041 1.00001" stroke="#FE9076" stroke-width="0.736823" stroke-linecap="round"/>
<path d="M132.846 20.1626C134.911 17.6439 140.632 12.3323 147.001 11.2358" stroke="#FFA400" stroke-width="0.736823" stroke-linecap="round"/>
<path d="M115.643 58.8056C117.473 59.4664 122.079 61.5721 125.866 64.7083" stroke="#23BB86" stroke-width="0.736823" stroke-linecap="round"/>
<rect x="28.7346" y="104.03" width="90.53" height="61.9697" fill="url(#paint8_linear)"/>
<mask id="mask0" mask-type="alpha" maskUnits="userSpaceOnUse" x="28" y="104" width="92" height="62">
<rect x="28.7346" y="104.03" width="90.53" height="61.9697" fill="#C4C4C4"/>
</mask>
<g mask="url(#mask0)">
<path d="M33.0186 102.452L94.6633 102.452L80.7302 126.409L19.0854 126.409L33.0186 102.452Z" fill="black" fill-opacity="0.07"/>
<rect x="90.2988" y="104.03" width="90.53" height="61.9697" fill="url(#paint9_linear)"/>
</g>
<path d="M28.6547 104.03L90.2994 104.03L78.3915 123.708L16.7468 123.708L28.6547 104.03Z" fill="url(#paint10_linear)"/>
<mask id="mask1" mask-type="alpha" maskUnits="userSpaceOnUse" x="90" y="104" width="30" height="62">
<rect x="90.2996" y="104.03" width="28.9653" height="61.9697" fill="#C4C4C4"/>
</mask>
<g mask="url(#mask1)">
<path d="M115.739 103.927L86.7278 103.927L100.359 126.582L129.37 126.582L115.739 103.927Z" fill="black" fill-opacity="0.07"/>
</g>
<path d="M119.31 104.03L90.2992 104.03L102.207 123.708L131.218 123.708L119.31 104.03Z" fill="url(#paint11_linear)"/>
<ellipse cx="58.8119" cy="88.2463" rx="8.55504" ry="8.4716" fill="url(#paint12_linear)"/>
<ellipse cx="92.2643" cy="71.5886" rx="8.26679" ry="8.18616" fill="url(#paint13_linear)"/>
<ellipse cx="60.7005" cy="56.801" rx="6.66635" ry="6.60133" fill="url(#paint14_linear)"/>
<ellipse cx="86.2338" cy="41.6961" rx="6.03046" ry="5.97164" fill="url(#paint15_linear)"/>
<ellipse cx="76.4198" cy="64.0681" rx="1.66248" ry="1.64627" fill="#FFA800" fill-opacity="0.23"/>
<ellipse cx="102.193" cy="51.8459" rx="1.66248" ry="1.64627" fill="#FFA800" fill-opacity="0.23"/>
<ellipse cx="62.3629" cy="32.1816" rx="1.66248" ry="1.64627" fill="#FFA800" fill-opacity="0.23"/>
<ellipse cx="84.5712" cy="91.9025" rx="1.66248" ry="1.64627" fill="#FFA800" fill-opacity="0.23"/>
<ellipse cx="46.1325" cy="65.7144" rx="1.66248" ry="1.64627" fill="#FFA800" fill-opacity="0.23"/>
<path d="M119.479 104.324H28.6633L14.7163 19.1688H136.226L119.479 104.324Z" fill="url(#paint16_linear)"/>
<defs>
<linearGradient id="paint0_linear" x1="54.5636" y1="38.2137" x2="51.5931" y2="45.8734" gradientUnits="userSpaceOnUse">
<stop stop-color="#FFE89E"/>
<stop offset="1" stop-color="#FFBF1A"/>
</linearGradient>
<linearGradient id="paint1_linear" x1="48.7651" y1="24.702" x2="46.7879" y2="29.8005" gradientUnits="userSpaceOnUse">
<stop stop-color="#FFE89E"/>
<stop offset="1" stop-color="#FFBF1A"/>
</linearGradient>
<linearGradient id="paint2_linear" x1="35.1757" y1="9.79794" x2="32.2052" y2="17.4576" gradientUnits="userSpaceOnUse">
<stop stop-color="#FFE89E"/>
<stop offset="1" stop-color="#FFBF1A"/>
</linearGradient>
<linearGradient id="paint3_linear" x1="33.7323" y1="40.6499" x2="29.3617" y2="51.92" gradientUnits="userSpaceOnUse">
<stop stop-color="#FFE89E"/>
<stop offset="1" stop-color="#FFBF1A"/>
</linearGradient>
<linearGradient id="paint4_linear" x1="93.4369" y1="38.2137" x2="96.4073" y2="45.8734" gradientUnits="userSpaceOnUse">
<stop stop-color="#FFE89E"/>
<stop offset="1" stop-color="#FFBF1A"/>
</linearGradient>
<linearGradient id="paint5_linear" x1="99.2351" y1="24.702" x2="101.212" y2="29.8005" gradientUnits="userSpaceOnUse">
<stop stop-color="#FFE89E"/>
<stop offset="1" stop-color="#FFBF1A"/>
</linearGradient>
<linearGradient id="paint6_linear" x1="112.825" y1="9.79794" x2="115.795" y2="17.4576" gradientUnits="userSpaceOnUse">
<stop stop-color="#FFE89E"/>
<stop offset="1" stop-color="#FFBF1A"/>
</linearGradient>
<linearGradient id="paint7_linear" x1="114.268" y1="40.6499" x2="118.639" y2="51.92" gradientUnits="userSpaceOnUse">
<stop stop-color="#FFE89E"/>
<stop offset="1" stop-color="#FFBF1A"/>
</linearGradient>
<linearGradient id="paint8_linear" x1="58.9759" y1="92.5572" x2="23.515" y2="191.189" gradientUnits="userSpaceOnUse">
<stop stop-color="#FFD481"/>
<stop offset="1" stop-color="#FA620C"/>
</linearGradient>
<linearGradient id="paint9_linear" x1="44.1805" y1="100.1" x2="152.539" y2="217.036" gradientUnits="userSpaceOnUse">
<stop stop-color="#FFD481"/>
<stop offset="0.83311" stop-color="#FA620C"/>
</linearGradient>
<linearGradient id="paint10_linear" x1="29.9233" y1="96.9974" x2="27.0503" y2="138.929" gradientUnits="userSpaceOnUse">
<stop stop-color="#FFD481"/>
<stop offset="1" stop-color="#FA620C"/>
</linearGradient>
<linearGradient id="paint11_linear" x1="123.887" y1="96.9973" x2="128.999" y2="138.496" gradientUnits="userSpaceOnUse">
<stop stop-color="#FFD481"/>
<stop offset="1" stop-color="#FA620C"/>
</linearGradient>
<linearGradient id="paint12_linear" x1="59.4597" y1="76.9787" x2="57.8638" y2="99.8479" gradientUnits="userSpaceOnUse">
<stop stop-color="#FF9F81"/>
<stop offset="1" stop-color="#F53838"/>
</linearGradient>
<linearGradient id="paint13_linear" x1="92.8903" y1="60.7007" x2="91.3482" y2="82.7992" gradientUnits="userSpaceOnUse">
<stop stop-color="#FF9F81"/>
<stop offset="1" stop-color="#F53838"/>
</linearGradient>
<linearGradient id="paint14_linear" x1="61.2053" y1="48.021" x2="59.9618" y2="65.8413" gradientUnits="userSpaceOnUse">
<stop stop-color="#FF9F81"/>
<stop offset="1" stop-color="#F53838"/>
</linearGradient>
<linearGradient id="paint15_linear" x1="86.6905" y1="33.7536" x2="85.5655" y2="49.8741" gradientUnits="userSpaceOnUse">
<stop stop-color="#FF9F81"/>
<stop offset="1" stop-color="#F53838"/>
</linearGradient>
<linearGradient id="paint16_linear" x1="74.4729" y1="19.1688" x2="74.4729" y2="200.082" gradientUnits="userSpaceOnUse">
<stop stop-color="white" stop-opacity="0"/>
<stop offset="1" stop-color="#FE9277"/>
</linearGradient>
</defs>
</svg>
