<svg width="16" height="17" viewBox="0 0 16 17" fill="none" xmlns="http://www.w3.org/2000/svg">
<path d="M14.189 5.61491L10.2218 5.02813L8.44834 1.36912C8.39991 1.26894 8.32022 1.18784 8.22178 1.13854C7.97491 1.01451 7.67491 1.11787 7.55147 1.36912L5.77803 5.02813L1.81084 5.61491C1.70147 5.63081 1.60147 5.68329 1.52491 5.7628C1.43235 5.85962 1.38134 5.98987 1.3831 6.12495C1.38486 6.26002 1.43924 6.38886 1.53428 6.48315L4.40459 9.33117L3.72647 13.3527C3.71057 13.4463 3.72074 13.5425 3.75583 13.6305C3.79093 13.7184 3.84953 13.7946 3.92501 13.8504C4.00049 13.9062 4.08982 13.9394 4.18288 13.9461C4.27593 13.9529 4.36898 13.933 4.45147 13.8886L7.99991 11.99L11.5483 13.8886C11.6452 13.9411 11.7577 13.9586 11.8655 13.9395C12.1374 13.8918 12.3202 13.6294 12.2733 13.3527L11.5952 9.33117L14.4655 6.48315C14.5437 6.40523 14.5952 6.30346 14.6108 6.19215C14.653 5.91386 14.4624 5.65625 14.189 5.61491Z" fill="#FEA250"/>
</svg>
